#N canvas 0 0 1888 1010.03 10;
#X obj 84 273 cnv 15 351 506 empty empty 11VX\ MODULE 252 493 0 14
-203712 -66577 0;
#X obj 276 575 cnv 15 75 35 empty empty 2osc\ FM 38 30 0 7 -199729
-66577 0;
#X obj 440 273 cnv 15 271 320 empty empty 2VX\ MODULE 186 309 0 14
-261039 -66577 0;
#X obj 538 414 cnv 15 72 168 empty empty 11osc\ FM 17 162 0 7 -199729
-66577 0;
#X obj 1240 273 cnv 15 221 329 empty empty AMP\ MODULE 131 12 0 14
-241339 -66577 0;
#X obj 1276 301 cnv 15 176 174 empty empty 11\ osc\ 2\ osc\ mix 110
159 0 7 -199729 -66577 0;
#X obj 827 273 cnv 15 409 446 empty empty FX\ MODULE 2 436 0 14 -200687
-66577 0;
#X obj 1046 277 cnv 15 179 176 empty empty lpf\ noise\ mix 103 154
0 7 -199729 -66577 0;
#X obj 838 330 cnv 15 42 51 empty empty LPF\ in 10 40 0 7 -199729 -66577
0;
#X obj 1046 457 cnv 15 179 248 empty empty noise\ modulator 112 111
0 7 -199729 -66577 0;
#X obj 90 575 cnv 15 177 195 empty empty mix\ 11\ voices\ osc 89 182
0 7 -199729 -66577 0;
#X obj 356 575 cnv 15 75 60 empty empty noise\ FM 38 46 0 7 -199729
-66577 0;
#X obj 717 273 cnv 15 105 277 empty empty FX\ MIX 51 266 0 14 -216379
-66577 0;
#X obj 716 63 cnv 15 100 200 empty empty empty 20 12 0 14 -233017 -66577
0;
#X obj 826 63 cnv 15 170 200 empty empty empty 20 12 0 14 -233017 -66577
0;
#X obj 435 63 cnv 15 270 200 empty empty empty 20 12 0 14 -233017 -66577
0;
#X obj 204 63 cnv 15 220 200 empty empty empty 20 12 0 14 -233017 -66577
0;
#X obj 237 344 osc~;
#X obj 217 83 vsl 15 128 0 127 0 0 empty empty empty 0 -9 0 10 -262144
-1 -1 0 1;
#X obj 217 282 mtof;
#X obj 207 324 / 2;
#X obj 177 324 / 4;
#X obj 147 324 / 8;
#X obj 207 344 osc~;
#X obj 177 344 osc~;
#X obj 147 344 osc~;
#X obj 327 344 osc~;
#X obj 297 344 osc~;
#X obj 267 344 osc~;
#X obj 267 324 * 2;
#X obj 297 324 * 4;
#X obj 327 324 * 8;
#X obj 357 344 osc~;
#X obj 387 344 osc~;
#X obj 357 324 * 16;
#X obj 387 324 * 32;
#X obj 87 324 / 32;
#X obj 117 324 / 16;
#X obj 117 344 osc~;
#X obj 87 344 osc~;
#X obj 87 366 *~ 0.09;
#X obj 117 386 *~ 0.09;
#X obj 147 366 *~ 0.09;
#X obj 177 386 *~ 0.09;
#X obj 207 366 *~ 0.09;
#X obj 237 386 *~ 0.09;
#X obj 267 366 *~ 0.09;
#X obj 297 386 *~ 0.09;
#X obj 327 366 *~ 0.09;
#X obj 357 386 *~ 0.09;
#X obj 387 366 *~ 0.09;
#X obj 87 433 *~ 1;
#X obj 87 455 cos~;
#X obj 87 484 bp~;
#X floatatom 257 300 5 0 0 0 - - -, f 5;
#X obj 247 83 vsl 15 128 0 127 0 0 empty empty empty 0 -9 0 10 -262144
-1 -1 0 1;
#X obj 257 282 expr (($f1/127)*100);
#X obj 306 81 vsl 15 128 0 127 0 0 empty empty empty 0 -9 0 10 -262144
-1 -1 0 1;
#X msg 271 424 \$1 14;
#X obj 271 446 line;
#X obj 231 464 *~;
#X obj 231 443 osc~;
#X obj 276 81 vsl 15 128 0 127 0 0 empty empty empty 0 -9 0 10 -262144
-1 -1 0 1;
#X obj 231 420 mtof;
#X obj 87 526 lop~;
#X obj 336 81 vsl 15 128 0 127 0 0 empty empty empty 0 -9 0 10 -262144
-1 -1 0 1;
#X obj 317 420 mtof;
#X obj 502 352 osc~;
#X obj 502 81 vsl 15 128 0 127 0 0 empty empty empty 0 -9 0 10 -262144
-1 -1 0 1;
#X obj 442 417 /~;
#X obj 442 352 osc~;
#X obj 442 81 vsl 15 128 0 127 0 0 empty empty empty 0 -9 0 10 -262144
-1 -1 0 1;
#X obj 442 372 *~ 0.5;
#X obj 502 372 *~ 0.5;
#X obj 472 417 /~;
#X obj 612 81 vsl 15 128 0 127 0 0 empty empty empty 0 -9 0 10 -262144
-1 -1 0 1;
#X obj 632 280 / 127;
#X obj 632 322 line~;
#X msg 632 302 \$1 14;
#X obj 632 81 vsl 15 128 0 127 0 0 empty empty empty 0 -9 0 10 -262144
-1 -1 0 1;
#X obj 672 280 / 127;
#X obj 672 322 line~;
#X msg 672 302 \$1 14;
#X obj 662 81 vsl 15 128 0 127 0 0 empty empty empty 0 -9 0 10 -262144
-1 -1 0 1;
#X obj 632 350 / 127;
#X obj 632 392 line~;
#X msg 632 372 \$1 14;
#X obj 682 81 vsl 15 128 0 127 0 0 empty empty empty 0 -9 0 10 -262144
-1 -1 0 1;
#X obj 672 350 / 127;
#X obj 672 392 line~;
#X msg 672 372 \$1 14;
#X obj 442 394 *~;
#X obj 472 394 *~;
#X obj 532 394 *~;
#X obj 502 394 *~;
#X obj 442 279 expr (($f1/127)*$f2);
#X obj 502 309 expr (($f1/127)*$f2);
#X obj 462 81 vsl 15 128 0 127 0 0 empty empty empty 0 -9 0 10 -262144
-1 -1 0 1;
#X obj 522 81 vsl 15 128 0 127 0 0 empty empty empty 0 -9 0 10 -262144
-1 -1 0 1;
#X obj 442 331 mtof;
#X obj 502 331 mtof;
#X msg 444 301 bang;
#X msg 464 301 bang;
#X text 455 63 A;
#X text 515 63 B;
#X obj 562 81 vsl 15 128 0 127 0 0 empty empty empty 0 -9 0 10 -262144
-1 -1 0 1;
#X obj 632 462 line~;
#X msg 632 442 \$1 14;
#X obj 442 442 +~;
#X obj 472 473 *~;
#X text 619 63 A/B;
#X text 669 63 B/A;
#X text 559 63 OUT;
#X obj 487 515 cos~;
#X obj 582 81 vsl 15 128 0 127 0 0 empty empty empty 0 -9 0 10 -262144
-1 -1 0 1;
#X text 579 63 cos;
#X obj 672 462 line~;
#X msg 672 442 \$1 14;
#X obj 487 493 *~;
#X obj 472 442 +~;
#X text 211 65 freq;
#X text 240 65 res;
#X text 275 64 FM;
#X text 303 63 vol;
#X text 332 63 LPF;
#X text 204 246 11 voices osc;
#X text 629 246 2 voices osc;
#X obj 287 583 *~;
#X obj 317 583 *~;
#X obj 543 486 snapshot~;
#X obj 543 464 metro 50;
#X obj 543 511 max 0.001;
#X obj 543 533 * 50;
#X obj 87 506 *~;
#X obj 829 553 vcf~;
#X obj 867 553 bob~;
#X obj 901 321 / 25;
#X obj 881 527 line~;
#X msg 890 449 saturation \$1;
#X obj 890 425 / 100;
#X msg 927 420 oversample \$1;
#X msg 927 396 2;
#X obj 890 369 loadbang;
#X obj 901 347 line~;
#X msg 881 501 \$1 14;
#X obj 832 81 vsl 15 128 0 127 0 0 empty empty empty 0 -9 0 10 -262144
-1 -1 0 1;
#X obj 881 480 mtof;
#X obj 852 81 vsl 15 128 0 127 0 0 empty empty empty 0 -9 0 10 -262144
-1 -1 0 1;
#X obj 901 282 expr (($f1/127)*200);
#X obj 829 605 +~;
#X obj 829 575 *~ 2;
#X obj 867 575 *~ 0.5;
#X msg 890 398 350;
#X obj 901 302 max 1;
#X obj 829 625 +~;
#X obj 857 597 *~;
#X obj 829 522 +~;
#X obj 829 681 clip~ -1 1;
#X text 825 63 freq;
#X text 859 63 res;
#X text 926 246 filter rvrb;
#X obj 899 681 clip~ -1 1;
#X obj 442 219 hsl 128 15 0 127 0 0 empty empty 11\ \ voices\ \ in\ \ A
4 7 0 10 -262144 -1 -1 0 1;
#X obj 317 443 / 127;
#X obj 442 239 hsl 128 15 0 127 0 0 empty empty 11\ \ voices\ \ in\ \ B
43 8 0 10 -262144 -1 -1 0 1;
#X obj 317 467 / 127;
#X obj 252 219 hsl 128 15 0 127 0 0 empty empty 2\ voices\ in 57 6
0 10 -262144 -1 -1 0 1;
#X obj 574 533 / 127;
#X obj 543 555 *;
#X obj 543 418 loadbang;
#X msg 543 440 1;
#X obj 396 91 vsl 15 128 0 127 0 0 empty empty empty 0 -9 0 10 -262144
-1 -1 0 1;
#X msg 572 439 0;
#X obj 574 555 sel 0;
#X text 392 73 OUT;
#X obj 95 632 min 10;
#X obj 95 608 expr (((($f1)*-1)+1)/2)*20;
#X obj 145 638 expr (($f1+1)/2)*20;
#X obj 145 662 min 10;
#X obj 95 654 / 10;
#X obj 145 684 / 10;
#X obj 95 697 line~;
#X obj 145 727 line~;
#X obj 90 725 *~;
#X obj 130 752 *~;
#X obj 90 749 +~;
#X msg 95 676 \$1 14;
#X msg 145 706 \$1 14;
#X obj 116 580 expr ((($f1/127)*2)-1);
#X obj 46 -23 ctlin 32;
#X obj 106 -23 ctlin 33;
#X obj 166 -23 ctlin 34;
#X obj 226 -23 ctlin 35;
#X obj 46 -3 ctlin 36;
#X obj 106 -3 ctlin 37;
#X obj 226 -3 ctlin 39;
#X floatatom 46 19 5 0 0 0 - - -, f 5;
#X floatatom 106 19 5 0 0 0 - - -, f 5;
#X floatatom 166 19 5 0 0 0 - - -, f 5;
#X floatatom 226 19 5 0 0 0 - - -, f 5;
#X floatatom 126 39 5 0 0 0 - - -, f 5;
#X floatatom 186 39 5 0 0 0 - - -, f 5;
#X floatatom 306 39 5 0 0 0 - - -, f 5;
#X obj 166 -3 ctlin 38;
#X floatatom 246 39 5 0 0 0 - - -, f 5;
#X floatatom 316 19 5 0 0 0 - - -, f 5;
#X floatatom 376 19 5 0 0 0 - - -, f 5;
#X floatatom 436 19 5 0 0 0 - - -, f 5;
#X floatatom 496 19 5 0 0 0 - - -, f 5;
#X floatatom 396 39 5 0 0 0 - - -, f 5;
#X floatatom 456 39 5 0 0 0 - - -, f 5;
#X floatatom 576 39 5 0 0 0 - - -, f 5;
#X floatatom 516 39 5 0 0 0 - - -, f 5;
#X floatatom 586 19 5 0 0 0 - - -, f 5;
#X floatatom 646 19 5 0 0 0 - - -, f 5;
#X floatatom 706 19 5 0 0 0 - - -, f 5;
#X floatatom 766 19 5 0 0 0 - - -, f 5;
#X floatatom 666 39 5 0 0 0 - - -, f 5;
#X floatatom 726 39 5 0 0 0 - - -, f 5;
#X floatatom 846 39 5 0 0 0 - - -, f 5;
#X floatatom 786 39 5 0 0 0 - - -, f 5;
#X floatatom 856 19 5 0 0 0 - - -, f 5;
#X floatatom 916 19 5 0 0 0 - - -, f 5;
#X floatatom 976 19 5 0 0 0 - - -, f 5;
#X floatatom 1036 19 5 0 0 0 - - -, f 5;
#X floatatom 1242 301 5 0 0 0 - - -, f 5;
#X floatatom 1362 511 5 0 0 0 - - -, f 5;
#X floatatom 1116 39 5 0 0 0 - - -, f 5;
#X floatatom 1056 39 5 0 0 0 - - -, f 5;
#X obj 316 -23 ctlin 40;
#X obj 376 -23 ctlin 41;
#X obj 436 -23 ctlin 42;
#X obj 496 -23 ctlin 43;
#X obj 316 -3 ctlin 44;
#X obj 376 -3 ctlin 45;
#X obj 436 -3 ctlin 46;
#X obj 496 -3 ctlin 47;
#X obj 586 -23 ctlin 48;
#X obj 646 -23 ctlin 49;
#X obj 706 -23 ctlin 50;
#X obj 766 -23 ctlin 51;
#X obj 586 -3 ctlin 52;
#X obj 646 -3 ctlin 53;
#X obj 706 -3 ctlin 54;
#X obj 766 -3 ctlin 55;
#X obj 856 -23 ctlin 56;
#X obj 916 -23 ctlin 57;
#X obj 976 -23 ctlin 58;
#X obj 1036 -23 ctlin 59;
#X obj 1242 279 ctlin 60;
#X obj 1362 479 ctlin 61;
#X obj 976 -3 ctlin 62;
#X obj 1036 -3 ctlin 63;
#X obj 736 442 *~;
#X obj 726 422 *~;
#X obj 746 462 *~;
#X obj 756 482 *~;
#X obj 722 81 vsl 15 128 0 127 0 0 empty empty 11COS 0 -9 0 10 -262144
-1 -1 0 1;
#X obj 742 81 vsl 15 128 0 127 0 0 empty empty 11OSC -15 139 0 10 -262144
-1 -1 0 1;
#X obj 772 81 vsl 15 128 0 127 0 0 empty empty 2COS 0 -9 0 10 -262144
-1 -1 0 1;
#X obj 792 81 vsl 15 128 0 127 0 0 empty empty 2OSC -10 139 0 10 -262144
-1 -1 0 1;
#X obj 722 280 / 127;
#X obj 722 322 line~;
#X msg 722 302 \$1 14;
#X obj 772 280 / 127;
#X obj 772 322 line~;
#X msg 772 302 \$1 14;
#X obj 732 350 / 127;
#X obj 732 392 line~;
#X msg 732 372 \$1 14;
#X obj 782 350 / 127;
#X obj 782 392 line~;
#X msg 782 372 \$1 14;
#X obj 726 514 +~;
#X obj 756 514 +~;
#X obj 847 346 +~;
#X obj 472 542 +~;
#X obj 952 81 vsl 15 128 0 127 0 0 empty empty out 0 -9 0 10 -262144
-1 -1 0 1;
#X obj 972 81 vsl 15 128 0 127 0 0 empty empty rvrb 0 -9 0 10 -262144
-1 -1 0 1;
#X obj 882 81 vsl 15 128 0 127 0 0 empty empty in/nz 0 -9 0 10 -262144
-1 -1 0 1;
#X obj 1090 428 line~;
#X msg 1090 408 \$1 14;
#X obj 854 490 *~;
#X obj 1148 584 noise~;
#X obj 829 490 *~;
#X obj 1047 428 line~;
#X msg 1047 408 \$1 14;
#X obj 1047 334 min 10;
#X obj 1047 310 expr (((($f1)*-1)+1)/2)*20;
#X obj 1097 340 expr (($f1+1)/2)*20;
#X obj 1097 364 min 10;
#X obj 1047 356 / 10;
#X obj 1097 386 / 10;
#X obj 1068 282 expr ((($f1/127)*2)-1);
#X obj 987 561 line~;
#X msg 987 541 \$1 14;
#X obj 947 561 line~;
#X msg 947 541 \$1 14;
#X obj 979 588 *~;
#X obj 949 588 *~;
#X obj 949 620 +~;
#X obj 1247 531 +~;
#X obj 1247 583 dac~;
#X obj 829 653 rev3~ 100 90 300 20;
#X obj 912 81 vsl 15 128 0 127 0 0 empty empty nz\ fm 0 -9 0 10 -262144
-1 -1 0 1;
#X obj 632 420 / 127;
#X obj 672 420 / 127;
#X obj 947 519 / 63;
#X obj 987 519 / 63;
#X obj 1053 517 min 10;
#X obj 1053 493 expr (((($f1)*-1)+1)/2)*20;
#X obj 1103 523 expr (($f1+1)/2)*20;
#X obj 1103 547 min 10;
#X obj 1053 539 / 10;
#X obj 1103 569 / 10;
#X obj 1053 582 line~;
#X obj 1103 612 line~;
#X msg 1053 561 \$1 14;
#X msg 1103 591 \$1 14;
#X obj 1074 465 expr ((($f1/127)*2)-1);
#X obj 1067 644 *~;
#X obj 1097 667 *~;
#X obj 1067 664 +~;
#X obj 1096 642 *~;
#X obj 367 583 +~;
#X obj 397 583 +~;
#X obj 367 615 +~;
#X obj 1282 358 min 10;
#X obj 1282 334 expr (((($f1)*-1)+1)/2)*20;
#X obj 1333 364 expr (($f1+1)/2)*20;
#X obj 1333 388 min 10;
#X obj 1282 380 / 10;
#X obj 1333 410 / 10;
#X obj 1282 423 line~;
#X obj 1333 453 line~;
#X msg 1282 402 \$1 14;
#X msg 1333 432 \$1 14;
#X obj 1282 306 expr ((($f1/127)*2)-1);
#X obj 1247 478 *~;
#X obj 1287 478 *~;
#X obj 1247 509 +~;
#X obj 1247 553 *~;
#X obj 1362 574 line~;
#X msg 1362 554 \$1 14;
#X obj 1362 532 / 127;
#X connect 17 0 45 0;
#X connect 18 0 19 0;
#X connect 19 0 17 0;
#X connect 19 0 20 0;
#X connect 19 0 21 0;
#X connect 19 0 22 0;
#X connect 19 0 29 0;
#X connect 19 0 30 0;
#X connect 19 0 31 0;
#X connect 19 0 34 0;
#X connect 19 0 35 0;
#X connect 19 0 37 0;
#X connect 19 0 36 0;
#X connect 19 0 53 1;
#X connect 20 0 23 0;
#X connect 21 0 24 0;
#X connect 22 0 25 0;
#X connect 23 0 44 0;
#X connect 24 0 43 0;
#X connect 25 0 42 0;
#X connect 26 0 48 0;
#X connect 27 0 47 0;
#X connect 28 0 46 0;
#X connect 29 0 28 0;
#X connect 30 0 27 0;
#X connect 31 0 26 0;
#X connect 32 0 49 0;
#X connect 33 0 50 0;
#X connect 34 0 32 0;
#X connect 35 0 33 0;
#X connect 36 0 39 0;
#X connect 37 0 38 0;
#X connect 38 0 41 0;
#X connect 39 0 40 0;
#X connect 40 0 51 0;
#X connect 41 0 51 0;
#X connect 42 0 51 0;
#X connect 43 0 51 0;
#X connect 44 0 51 0;
#X connect 45 0 51 0;
#X connect 46 0 51 0;
#X connect 47 0 51 0;
#X connect 48 0 51 0;
#X connect 49 0 51 0;
#X connect 50 0 51 0;
#X connect 51 0 52 0;
#X connect 52 0 53 0;
#X connect 52 0 184 0;
#X connect 52 0 254 0;
#X connect 53 0 133 0;
#X connect 53 0 325 1;
#X connect 54 0 53 2;
#X connect 55 0 56 0;
#X connect 56 0 54 0;
#X connect 57 0 58 0;
#X connect 58 0 59 0;
#X connect 59 0 60 1;
#X connect 60 0 133 1;
#X connect 61 0 60 0;
#X connect 62 0 63 0;
#X connect 63 0 61 0;
#X connect 64 0 127 0;
#X connect 64 0 128 0;
#X connect 64 0 183 0;
#X connect 64 0 253 0;
#X connect 64 0 324 1;
#X connect 65 0 66 0;
#X connect 66 0 64 1;
#X connect 67 0 73 0;
#X connect 68 0 96 0;
#X connect 69 0 108 0;
#X connect 70 0 72 0;
#X connect 71 0 95 0;
#X connect 72 0 91 0;
#X connect 72 0 93 0;
#X connect 73 0 92 0;
#X connect 73 0 94 0;
#X connect 74 0 108 1;
#X connect 75 0 76 0;
#X connect 76 0 78 0;
#X connect 77 0 91 1;
#X connect 78 0 77 0;
#X connect 79 0 80 0;
#X connect 80 0 82 0;
#X connect 81 0 92 1;
#X connect 82 0 81 0;
#X connect 83 0 84 0;
#X connect 84 0 86 0;
#X connect 85 0 94 1;
#X connect 86 0 85 0;
#X connect 87 0 88 0;
#X connect 88 0 90 0;
#X connect 89 0 93 1;
#X connect 90 0 89 0;
#X connect 91 0 69 0;
#X connect 92 0 69 1;
#X connect 93 0 74 1;
#X connect 94 0 74 0;
#X connect 95 0 99 0;
#X connect 96 0 100 0;
#X connect 97 0 95 1;
#X connect 97 0 101 0;
#X connect 98 0 96 1;
#X connect 98 0 102 0;
#X connect 99 0 70 0;
#X connect 100 0 67 0;
#X connect 101 0 71 0;
#X connect 102 0 68 0;
#X connect 105 0 305 0;
#X connect 106 0 109 1;
#X connect 107 0 106 0;
#X connect 108 0 119 0;
#X connect 108 0 118 0;
#X connect 108 0 256 0;
#X connect 109 0 276 0;
#X connect 113 0 119 1;
#X connect 113 0 276 1;
#X connect 114 0 306 0;
#X connect 116 0 118 1;
#X connect 117 0 116 0;
#X connect 118 0 113 0;
#X connect 119 0 109 0;
#X connect 119 0 255 0;
#X connect 119 0 129 0;
#X connect 127 0 72 0;
#X connect 127 0 324 0;
#X connect 128 0 73 0;
#X connect 129 0 131 0;
#X connect 130 0 129 0;
#X connect 131 0 132 0;
#X connect 132 0 168 0;
#X connect 133 0 64 0;
#X connect 133 0 325 0;
#X connect 134 0 150 0;
#X connect 135 0 151 0;
#X connect 136 0 143 0;
#X connect 137 0 135 1;
#X connect 137 0 134 1;
#X connect 138 0 135 0;
#X connect 139 0 138 0;
#X connect 140 0 135 0;
#X connect 141 0 140 0;
#X connect 142 0 152 0;
#X connect 142 0 141 0;
#X connect 143 0 135 2;
#X connect 144 0 137 0;
#X connect 145 0 146 0;
#X connect 146 0 144 0;
#X connect 147 0 148 0;
#X connect 148 0 153 0;
#X connect 149 0 154 0;
#X connect 150 0 149 0;
#X connect 150 0 155 0;
#X connect 151 0 149 1;
#X connect 151 0 155 1;
#X connect 152 0 139 0;
#X connect 153 0 136 0;
#X connect 153 0 134 2;
#X connect 154 0 161 0;
#X connect 154 0 303 0;
#X connect 155 0 154 1;
#X connect 156 0 134 0;
#X connect 156 0 135 0;
#X connect 157 0 299 0;
#X connect 161 0 298 0;
#X connect 162 0 163 0;
#X connect 163 0 127 1;
#X connect 164 0 165 0;
#X connect 165 0 128 0;
#X connect 166 0 167 0;
#X connect 167 0 168 1;
#X connect 167 0 173 0;
#X connect 168 0 62 0;
#X connect 169 0 170 0;
#X connect 170 0 130 0;
#X connect 171 0 188 0;
#X connect 172 0 130 0;
#X connect 173 0 172 0;
#X connect 173 1 170 0;
#X connect 175 0 179 0;
#X connect 176 0 175 0;
#X connect 177 0 178 0;
#X connect 178 0 180 0;
#X connect 179 0 186 0;
#X connect 180 0 187 0;
#X connect 181 0 183 1;
#X connect 182 0 184 1;
#X connect 183 0 185 0;
#X connect 184 0 185 1;
#X connect 185 0 338 0;
#X connect 186 0 181 0;
#X connect 187 0 182 0;
#X connect 188 0 176 0;
#X connect 188 0 177 0;
#X connect 189 0 196 0;
#X connect 190 0 197 0;
#X connect 191 0 198 0;
#X connect 192 0 199 0;
#X connect 193 0 200 0;
#X connect 194 0 201 0;
#X connect 195 0 202 0;
#X connect 196 0 18 0;
#X connect 197 0 55 0;
#X connect 198 0 62 0;
#X connect 199 0 57 0;
#X connect 200 0 65 0;
#X connect 201 0 166 0;
#X connect 202 0 171 0;
#X connect 203 0 204 0;
#X connect 205 0 71 0;
#X connect 206 0 97 0;
#X connect 207 0 75 0;
#X connect 208 0 79 0;
#X connect 209 0 68 0;
#X connect 210 0 98 0;
#X connect 211 0 87 0;
#X connect 212 0 83 0;
#X connect 213 0 162 0;
#X connect 214 0 105 0;
#X connect 215 0 114 0;
#X connect 216 0 164 0;
#X connect 217 0 257 0;
#X connect 218 0 258 0;
#X connect 219 0 260 0;
#X connect 220 0 259 0;
#X connect 221 0 145 0;
#X connect 222 0 147 0;
#X connect 223 0 279 0;
#X connect 224 0 304 0;
#X connect 225 0 337 0;
#X connect 226 0 344 0;
#X connect 227 0 278 0;
#X connect 228 0 277 0;
#X connect 229 0 205 0;
#X connect 230 0 206 0;
#X connect 231 0 207 0;
#X connect 232 0 208 0;
#X connect 233 0 209 0;
#X connect 234 0 210 0;
#X connect 235 0 212 0;
#X connect 236 0 211 0;
#X connect 237 0 213 0;
#X connect 238 0 214 0;
#X connect 239 0 215 0;
#X connect 240 0 216 0;
#X connect 241 0 217 0;
#X connect 242 0 218 0;
#X connect 243 0 220 0;
#X connect 244 0 219 0;
#X connect 245 0 221 0;
#X connect 246 0 222 0;
#X connect 247 0 223 0;
#X connect 248 0 224 0;
#X connect 249 0 225 0;
#X connect 250 0 226 0;
#X connect 251 0 228 0;
#X connect 252 0 227 0;
#X connect 253 0 273 1;
#X connect 254 0 273 0;
#X connect 255 0 274 0;
#X connect 256 0 274 1;
#X connect 257 0 261 0;
#X connect 258 0 267 0;
#X connect 259 0 264 0;
#X connect 260 0 270 0;
#X connect 261 0 263 0;
#X connect 262 0 254 1;
#X connect 263 0 262 0;
#X connect 264 0 266 0;
#X connect 265 0 255 1;
#X connect 266 0 265 0;
#X connect 267 0 269 0;
#X connect 268 0 253 1;
#X connect 269 0 268 0;
#X connect 270 0 272 0;
#X connect 271 0 256 1;
#X connect 272 0 271 0;
#X connect 273 0 275 0;
#X connect 274 0 275 1;
#X connect 275 0 284 0;
#X connect 276 0 339 0;
#X connect 277 0 307 0;
#X connect 278 0 308 0;
#X connect 279 0 293 0;
#X connect 280 0 282 1;
#X connect 281 0 280 0;
#X connect 282 0 156 1;
#X connect 283 0 320 0;
#X connect 283 0 323 0;
#X connect 284 0 156 0;
#X connect 285 0 284 1;
#X connect 286 0 285 0;
#X connect 287 0 291 0;
#X connect 288 0 287 0;
#X connect 289 0 290 0;
#X connect 290 0 292 0;
#X connect 291 0 286 0;
#X connect 292 0 281 0;
#X connect 293 0 288 0;
#X connect 293 0 289 0;
#X connect 294 0 299 1;
#X connect 295 0 294 0;
#X connect 296 0 298 1;
#X connect 297 0 296 0;
#X connect 298 0 300 1;
#X connect 299 0 300 0;
#X connect 300 0 301 1;
#X connect 301 0 341 0;
#X connect 303 0 157 0;
#X connect 303 1 157 0;
#X connect 303 2 157 0;
#X connect 303 3 157 0;
#X connect 304 0 319 0;
#X connect 305 0 107 0;
#X connect 306 0 117 0;
#X connect 307 0 297 0;
#X connect 308 0 295 0;
#X connect 309 0 313 0;
#X connect 310 0 309 0;
#X connect 311 0 312 0;
#X connect 312 0 314 0;
#X connect 313 0 317 0;
#X connect 314 0 318 0;
#X connect 315 0 320 1;
#X connect 316 0 321 1;
#X connect 317 0 315 0;
#X connect 318 0 316 0;
#X connect 319 0 310 0;
#X connect 319 0 311 0;
#X connect 320 0 322 0;
#X connect 321 0 322 1;
#X connect 322 0 282 0;
#X connect 323 0 321 0;
#X connect 324 0 326 0;
#X connect 325 0 326 1;
#X connect 326 0 323 1;
#X connect 327 0 331 0;
#X connect 328 0 327 0;
#X connect 329 0 330 0;
#X connect 330 0 332 0;
#X connect 331 0 335 0;
#X connect 332 0 336 0;
#X connect 333 0 338 1;
#X connect 334 0 339 1;
#X connect 335 0 333 0;
#X connect 336 0 334 0;
#X connect 337 0 328 0;
#X connect 337 0 329 0;
#X connect 338 0 340 0;
#X connect 339 0 340 1;
#X connect 340 0 301 0;
#X connect 341 0 302 0;
#X connect 341 0 302 1;
#X connect 342 0 341 1;
#X connect 343 0 342 0;
#X connect 344 0 343 0;
